<?xml version="1.0" encoding="UTF-8" standalone="no" ?><svg viewBox="0 0 91.916667 62.666667" xmlns="http://www.w3.org/2000/svg" xmlns:xlink="http://www.w3.org/1999/xlink"><defs><pattern height="16" id="pattern0" patternUnits="userSpaceOnUse" width="16"><image xlink:href="TL_GFX_PATTERN_0_N_1392651.000000.png"/></pattern><pattern height="16" id="pattern1" patternUnits="userSpaceOnUse" width="16"><image xlink:href="TL_GFX_PATTERN_7_N_1392650.000000.png"/></pattern></defs><path d="M 56.378540 52.126423 C 56.378540 52.126423 56.378540 52.126423 50.968933 50.812176 45.560303 49.496990 45.560303 49.496990 45.560303 49.496990 38.348774 41.608662 38.348774 20.574097 45.560303 12.685791 45.560303 12.685791 45.560303 12.685791 50.968933 11.371541 56.378540 10.054423 56.378540 10.054423 56.378540 10.054423" fill="none" stroke="url(#pattern0)" stroke-width="0.500000"/><polygon fill="url(#pattern0)" points="56,47 51,47 53,43 56,43" stroke="url(#pattern0)" stroke-width="0.500000"/><polygon fill="url(#pattern0)" points="51,43 49,39 44,43 49,46" stroke="url(#pattern0)" stroke-width="0.500000"/><polygon fill="url(#pattern0)" points="42,32 49,32 49,37 42,38" stroke="url(#pattern0)" stroke-width="0.500000"/><polygon fill="url(#pattern0)" points="56,14 51,14 53,19 56,19" stroke="url(#pattern0)" stroke-width="0.500000"/><polygon fill="url(#pattern0)" points="51,19 49,22 44,19 49,15" stroke="url(#pattern0)" stroke-width="0.500000"/><polygon fill="url(#pattern0)" points="42,29 49,29 49,24 42,23" stroke="url(#pattern0)" stroke-width="0.500000"/><polygon fill="url(#pattern1)" points="13,36 13,34 19,34 19,36" stroke="url(#pattern0)" stroke-width="0.500000"/><polygon fill="url(#pattern1)" points="13,32 13,29 19,29 19,32" stroke="url(#pattern0)" stroke-width="0.500000"/><polygon fill="url(#pattern1)" points="13,28 13,25 19,25 19,28" stroke="url(#pattern0)" stroke-width="0.500000"/><path d="M 12.926066 15.624349 C 7.547180 19.496988 7.547180 42.729939 13.171814 46.557453" fill="none" stroke="url(#pattern0)" stroke-width="0.500000"/><path d="M 28.870707 9.889302 C 23.492777 15.199056 23.492777 47.046101 29.116455 52.292500" fill="none" stroke="url(#pattern0)" stroke-width="0.500000"/><path d="M 10.128621 17.302429 C 4.749735 20.755533 4.749735 41.467548 10.374390 44.879375" fill="none" stroke="url(#pattern0)" stroke-width="0.500000"/><polygon fill="url(#pattern1)" points="68,41 68,34 75,34 75,41" stroke="url(#pattern0)" stroke-width="0.500000"/><polygon fill="url(#pattern1)" points="68,27 68,21 75,21 75,27" stroke="url(#pattern0)" stroke-width="0.500000"/><path d="M 90 1 C 90 21 90 41 90 61 30 55 30 55 18 49 6 43 6 43 3 37 0 31 0 31 3 25 6 19 6 19 18 13 30 7 30 7 90 1 Z" fill="none" stroke="url(#pattern0)" stroke-width="0.666667"/></svg>