<?xml version="1.0" encoding="UTF-8" standalone="no" ?><svg viewBox="0 0 244.415995 566.687988" xmlns="http://www.w3.org/2000/svg" xmlns:xlink="http://www.w3.org/1999/xlink"><defs><pattern height="16" id="pattern0" patternUnits="userSpaceOnUse" width="16"><image xlink:href="TL_GFX_PATTERN_6_N_1187850.030000.png"/></pattern><pattern height="16" id="pattern1" patternUnits="userSpaceOnUse" width="16"><image xlink:href="TL_GFX_PATTERN_0_N_1187851.000000.png"/></pattern><pattern height="16" id="pattern2" patternUnits="userSpaceOnUse" width="16"><image xlink:href="TL_GFX_PATTERN_7_N_1187850.000000.png"/></pattern><pattern height="16" id="pattern3" patternUnits="userSpaceOnUse" width="16"><image xlink:href="TL_GFX_PATTERN_5_N_1187850.100000.png"/></pattern><pattern height="16" id="pattern4" patternUnits="userSpaceOnUse" width="16"><image xlink:href="TL_GFX_PATTERN_4_N_1187850.300000.png"/></pattern><pattern height="16" id="pattern5" patternUnits="userSpaceOnUse" width="16"><image xlink:href="TL_GFX_PATTERN_3_N_1187850.500000.png"/></pattern></defs><path d="M 122 5 C 122 5 122 5 122 5 79 50 71 83 71 117 71 117 71 117 71 302 71 486 71 486 71 486 71 486 71 486 122 486 173 486 173 486 173 486 173 486 173 486 173 302 173 117 173 117 173 117 173 83 164 50 122 5 Z" fill="url(#pattern0)" stroke="url(#pattern1)" stroke-width="0.500000"/><path d="M 122.178139 5.571737 C 149.385498 51.354126 154.831589 85.690453 154.831589 120.027733 154.831589 131.475723 154.831589 131.475723 154.831589 120.027733" fill="url(#pattern2)" stroke="url(#pattern1)" stroke-width="0.500000"/><path d="M 122.178139 5.571737 C 141.874466 50.349018 145.817184 83.931725 145.817184 117.513489 145.817184 117.513489 145.817184 117.513489 145.817184 302.217499 145.817184 486.921478 145.817184 486.921478 145.817184 486.921478" fill="url(#pattern0)" stroke="url(#pattern1)" stroke-width="0.500000"/><rect fill="url(#pattern2)" height="101.997108" stroke="url(#pattern1)" stroke-width="0.500000" transform="rotate(90, 122.177673, 130.863235)" width="4.371826" x="119.991760" y="79.864685"/><line fill="url(#pattern2)" stroke="url(#pattern1)" stroke-width="0.500000" x1="71.489174" x2="172.866150" y1="185.274124" y2="185.274124"/><line fill="url(#pattern2)" stroke="url(#pattern1)" stroke-width="0.500000" x1="71.489174" x2="172.866150" y1="374.330780" y2="374.330780"/><line fill="url(#pattern2)" stroke="url(#pattern1)" stroke-width="0.500000" x1="71.489174" x2="172.866150" y1="402.472198" y2="402.472198"/><line fill="url(#pattern2)" stroke="url(#pattern1)" stroke-width="0.500000" x1="71.489174" x2="172.866150" y1="430.612701" y2="430.612701"/><line fill="url(#pattern2)" stroke="url(#pattern1)" stroke-width="0.500000" x1="71.489174" x2="172.866150" y1="458.754150" y2="458.754150"/><rect fill="url(#pattern2)" height="3.109436" stroke="url(#pattern1)" stroke-width="0.500000" transform="rotate(90, 122.177673, 4.287262)" width="5.907837" x="119.223755" y="2.732544"/><polygon fill="url(#pattern2)" points="177,565 192,520 207,520 222,565" stroke="url(#pattern1)" stroke-width="0.500000"/><line fill="url(#pattern2)" stroke="url(#pattern1)" stroke-width="0.500000" x1="179.810791" x2="220.441818" y1="559.061646" y2="559.061646"/><path d="M 177 330 C 177 139 177 139 177 139 200 61 200 61 222 139 222 139 222 139 222 330 222 520 222 520 222 520 222 520 222 520 228 537 233 554 233 554 233 554 233 554 233 554 200 554 166 554 166 554 166 554 166 554 166 554 172 537 177 520 177 520 177 520 177 520 177 520 177 330 Z" fill="url(#pattern0)" stroke="url(#pattern1)" stroke-width="0.500000"/><line fill="url(#pattern0)" stroke="url(#pattern1)" stroke-width="0.500000" x1="177.738144" x2="222.514465" y1="139.901657" y2="139.901657"/><line fill="url(#pattern0)" stroke="url(#pattern1)" stroke-width="0.500000" x1="177.738144" x2="222.514465" y1="183.079575" y2="183.079575"/><line fill="url(#pattern0)" stroke="url(#pattern1)" stroke-width="0.500000" x1="177.738144" x2="222.514465" y1="226.257492" y2="226.257492"/><line fill="url(#pattern0)" stroke="url(#pattern1)" stroke-width="0.500000" x1="177.738144" x2="222.514465" y1="269.434448" y2="269.434448"/><line fill="url(#pattern0)" stroke="url(#pattern1)" stroke-width="0.500000" x1="177.738144" x2="222.514465" y1="312.612366" y2="312.612366"/><line fill="url(#pattern0)" stroke="url(#pattern1)" stroke-width="0.500000" x1="177.738144" x2="222.514465" y1="355.789307" y2="355.789307"/><line fill="url(#pattern0)" stroke="url(#pattern1)" stroke-width="0.500000" x1="177.738144" x2="222.514465" y1="398.967255" y2="398.967255"/><line fill="url(#pattern0)" stroke="url(#pattern1)" stroke-width="0.500000" x1="177.738144" x2="222.514465" y1="442.144196" y2="442.144196"/><rect fill="none" height="44.763836" stroke="url(#pattern1)" stroke-width="0.500000" transform="rotate(90, 200.126801, 476.942749)" width="2.431661" x="198.910965" y="454.560822"/><rect fill="none" height="44.763836" stroke="url(#pattern1)" stroke-width="0.500000" transform="rotate(90, 200.126801, 488.137299)" width="2.431661" x="198.910965" y="465.755371"/><rect fill="none" height="44.763836" stroke="url(#pattern1)" stroke-width="0.500000" transform="rotate(90, 200.126801, 499.330902)" width="2.431661" x="198.910965" y="476.948975"/><rect fill="none" height="44.763836" stroke="url(#pattern1)" stroke-width="0.500000" transform="rotate(90, 200.126801, 519.287415)" width="2.431661" x="198.910965" y="496.905487"/><rect fill="url(#pattern2)" height="5.596781" stroke="url(#pattern1)" stroke-width="0.500000" transform="rotate(90, 200.126328, 147.967087)" width="8.064941" x="196.093857" y="145.168701"/><polygon fill="url(#pattern2)" points="222,139 222,162 226,159 226,152 223,151 226,149 226,142" stroke="url(#pattern1)" stroke-width="0.500000"/><polygon fill="url(#pattern2)" points="177,139 177,162 173,159 173,152 176,151 173,149 173,142" stroke="url(#pattern1)" stroke-width="0.500000"/><polygon fill="url(#pattern2)" points="189,117 193,117 192,121 188,121" stroke="url(#pattern1)" stroke-width="0.500000"/><polygon fill="url(#pattern2)" points="196,117 200,117 199,121 195,121" stroke="url(#pattern1)" stroke-width="0.500000"/><polygon fill="url(#pattern2)" points="187,124 191,124 190,128 186,128" stroke="url(#pattern1)" stroke-width="0.500000"/><polygon fill="url(#pattern2)" points="194,124 198,124 197,128 193,128" stroke="url(#pattern1)" stroke-width="0.500000"/><polygon fill="url(#pattern2)" points="222,162 222,520 224,527 224,160" stroke="url(#pattern1)" stroke-width="0.500000"/><polygon fill="url(#pattern2)" points="177,474 177,496 173,494 173,487 176,485 173,484 173,477" stroke="url(#pattern1)" stroke-width="0.500000"/><line fill="url(#pattern2)" stroke="url(#pattern1)" stroke-width="0.500000" x1="193.409180" x2="193.409180" y1="520.503235" y2="553.837341"/><polygon fill="none" points="177,554 185,530 185,554" stroke="url(#pattern1)" stroke-width="0.500000"/><polygon fill="none" points="222,554 214,530 214,554" stroke="url(#pattern1)" stroke-width="0.500000"/><polygon fill="none" points="198,528 198,540 211,540 209,528" stroke="url(#pattern1)" stroke-width="0.500000"/><polygon fill="none" points="221,525 230,551 225,551 217,525" stroke="url(#pattern1)" stroke-width="0.500000"/><polygon fill="url(#pattern2)" points="66,565 51,520 36,520 21,565" stroke="url(#pattern1)" stroke-width="0.500000"/><line fill="url(#pattern2)" stroke="url(#pattern1)" stroke-width="0.500000" x1="64.552223" x2="23.922140" y1="559.061646" y2="559.061646"/><path d="M 66 330 C 66 139 66 139 66 139 44 61 44 61 21 139 21 139 21 139 21 330 21 520 21 520 21 520 21 520 21 520 16 537 10 554 10 554 10 554 10 554 10 554 44 554 77 554 77 554 77 554 77 554 77 554 72 537 66 520 66 520 66 520 66 520 66 520 66 330 Z" fill="url(#pattern0)" stroke="url(#pattern1)" stroke-width="0.500000"/><line fill="url(#pattern0)" stroke="url(#pattern1)" stroke-width="0.500000" x1="66.625816" x2="21.848551" y1="139.901657" y2="139.901657"/><line fill="url(#pattern0)" stroke="url(#pattern1)" stroke-width="0.500000" x1="66.625816" x2="21.848551" y1="183.079575" y2="183.079575"/><line fill="url(#pattern0)" stroke="url(#pattern1)" stroke-width="0.500000" x1="66.625816" x2="21.848551" y1="226.257492" y2="226.257492"/><line fill="url(#pattern0)" stroke="url(#pattern1)" stroke-width="0.500000" x1="66.625816" x2="21.848551" y1="269.434448" y2="269.434448"/><line fill="url(#pattern0)" stroke="url(#pattern1)" stroke-width="0.500000" x1="66.625816" x2="21.848551" y1="312.612366" y2="312.612366"/><line fill="url(#pattern0)" stroke="url(#pattern1)" stroke-width="0.500000" x1="66.625816" x2="21.848551" y1="355.789307" y2="355.789307"/><line fill="url(#pattern0)" stroke="url(#pattern1)" stroke-width="0.500000" x1="66.625816" x2="21.848551" y1="398.967255" y2="398.967255"/><line fill="url(#pattern0)" stroke="url(#pattern1)" stroke-width="0.500000" x1="66.625816" x2="21.848551" y1="442.144196" y2="442.144196"/><rect fill="none" height="44.764790" stroke="url(#pattern1)" stroke-width="0.500000" transform="rotate(90, 44.236725, 476.942780)" width="2.431661" x="43.020893" y="454.560394"/><rect fill="none" height="44.764790" stroke="url(#pattern1)" stroke-width="0.500000" transform="rotate(90, 44.236725, 488.137299)" width="2.431661" x="43.020893" y="465.754913"/><rect fill="none" height="44.764790" stroke="url(#pattern1)" stroke-width="0.500000" transform="rotate(90, 44.236725, 499.330902)" width="2.431661" x="43.020893" y="476.948517"/><rect fill="none" height="44.764790" stroke="url(#pattern1)" stroke-width="0.500000" transform="rotate(90, 44.236725, 519.287415)" width="2.431661" x="43.020893" y="496.905029"/><rect fill="url(#pattern2)" height="5.596781" stroke="url(#pattern1)" stroke-width="0.500000" transform="rotate(90, 44.237690, 147.967087)" width="8.064941" x="40.205219" y="145.168701"/><polygon fill="url(#pattern2)" points="21,139 21,162 17,159 17,152 20,151 17,149 17,142" stroke="url(#pattern1)" stroke-width="0.500000"/><polygon fill="url(#pattern2)" points="66,139 66,162 70,159 70,152 68,151 70,149 70,142" stroke="url(#pattern1)" stroke-width="0.500000"/><polygon fill="url(#pattern2)" points="55,117 51,117 52,121 56,121" stroke="url(#pattern1)" stroke-width="0.500000"/><polygon fill="url(#pattern2)" points="48,117 44,117 45,121 49,121" stroke="url(#pattern1)" stroke-width="0.500000"/><polygon fill="url(#pattern2)" points="56,124 52,124 53,128 57,128" stroke="url(#pattern1)" stroke-width="0.500000"/><polygon fill="url(#pattern2)" points="49,124 45,124 46,128 50,128" stroke="url(#pattern1)" stroke-width="0.500000"/><polygon fill="url(#pattern2)" points="21,162 21,520 19,527 19,160" stroke="url(#pattern1)" stroke-width="0.500000"/><polygon fill="url(#pattern2)" points="66,474 66,496 70,494 70,487 68,485 70,484 70,477" stroke="url(#pattern1)" stroke-width="0.500000"/><line fill="url(#pattern2)" stroke="url(#pattern1)" stroke-width="0.500000" x1="50.953815" x2="50.953815" y1="520.503235" y2="553.837341"/><polygon fill="none" points="66,554 58,530 58,554" stroke="url(#pattern1)" stroke-width="0.500000"/><polygon fill="none" points="21,554 29,530 29,554" stroke="url(#pattern1)" stroke-width="0.500000"/><polygon fill="none" points="45,528 45,540 33,540 34,528" stroke="url(#pattern1)" stroke-width="0.500000"/><polygon fill="none" points="22,525 13,551 18,551 26,525" stroke="url(#pattern1)" stroke-width="0.500000"/><path d="M 6 454 C 11 429 11 429 11 429 11 429 11 429 41 401 71 373 71 373 71 373 71 373 71 373 81 338 91 303 91 303 91 303 91 303 91 303 94 268 96 232 96 232 96 232 102 162 142 162 147 232 147 232 147 232 149 268 152 303 152 303 152 303 152 303 152 303 162 338 172 373 172 373 172 373 172 373 172 373 202 401 232 429 232 429 232 429 232 429 232 429 237 454 243 479 243 479 243 479 243 479 243 479 197 489 152 499 152 499 152 499 152 499 152 499 122 499 91 499 91 499 91 499 91 499 91 499 46 489 1 479 1 479 1 479 1 479 1 479 6 454 Z" fill="url(#pattern2)" stroke="url(#pattern1)" stroke-width="0.500000"/><polygon fill="url(#pattern0)" points="96,313 78,376 24,426 14,471 106,471 106,313" stroke="url(#pattern1)" stroke-width="0.500000"/><polygon fill="url(#pattern0)" points="147,313 165,376 220,426 229,471 138,471 138,313" stroke="url(#pattern1)" stroke-width="0.500000"/><polygon fill="url(#pattern0)" points="112,475 112,472 112,444 132,444 132,475" stroke="url(#pattern1)" stroke-width="0.500000"/><path d="M 101.147423 235.881485 C 101.147423 235.881485 101.147423 235.881485 102.461670 230.471878 103.776855 225.063248 103.776855 225.063248 103.776855 225.063248 111.665184 217.851730 132.699753 217.851730 140.588058 225.063248 140.588058 225.063248 140.588058 225.063248 141.902298 230.471878 143.219421 235.881485 143.219421 235.881485 143.219421 235.881485" fill="none" stroke="url(#pattern1)" stroke-width="0.500000"/><polygon fill="url(#pattern1)" points="105,235 105,230 110,233 110,235" stroke="url(#pattern1)" stroke-width="0.500000"/><polygon fill="url(#pattern1)" points="110,231 113,228 110,223 106,228" stroke="url(#pattern1)" stroke-width="0.500000"/><polygon fill="url(#pattern1)" points="120,222 120,228 115,228 114,222" stroke="url(#pattern1)" stroke-width="0.500000"/><polygon fill="url(#pattern1)" points="139,235 139,230 134,233 134,235" stroke="url(#pattern1)" stroke-width="0.500000"/><polygon fill="url(#pattern1)" points="134,231 130,228 134,223 137,228" stroke="url(#pattern1)" stroke-width="0.500000"/><polygon fill="url(#pattern1)" points="123,222 123,228 128,228 129,222" stroke="url(#pattern1)" stroke-width="0.500000"/><polygon fill="url(#pattern2)" points="116,193 119,193 119,198 116,198" stroke="url(#pattern1)" stroke-width="0.500000"/><polygon fill="url(#pattern2)" points="121,193 123,193 123,198 121,198" stroke="url(#pattern1)" stroke-width="0.500000"/><polygon fill="url(#pattern2)" points="125,193 127,193 127,198 125,198" stroke="url(#pattern1)" stroke-width="0.500000"/><rect fill="url(#pattern2)" height="65.300148" stroke="url(#pattern1)" stroke-width="0.500000" transform="rotate(90, 47.435925, 473.456573)" width="3.210225" x="45.830811" y="440.806488"/><rect fill="url(#pattern2)" height="65.300148" stroke="url(#pattern1)" stroke-width="0.500000" transform="rotate(90, 47.435921, 475.805634)" width="1.754862" x="46.558491" y="443.155548"/><rect fill="url(#pattern2)" height="65.300148" stroke="url(#pattern1)" stroke-width="0.500000" transform="rotate(90, 47.435921, 477.484711)" width="1.754862" x="46.558491" y="444.834625"/><polygon fill="url(#pattern0)" points="14,478 79,483 80,478" stroke="url(#pattern1)" stroke-width="0.500000"/><rect fill="url(#pattern2)" height="2.909749" stroke="url(#pattern1)" stroke-width="0.500000" transform="rotate(90, 47.435913, 483.829773)" width="10.966064" x="41.952881" y="482.374908"/><rect fill="url(#pattern2)" height="65.300148" stroke="url(#pattern1)" stroke-width="0.500000" transform="rotate(90, 196.930008, 473.456573)" width="3.210225" x="195.324890" y="440.806488"/><rect fill="url(#pattern2)" height="65.300148" stroke="url(#pattern1)" stroke-width="0.500000" transform="rotate(90, 196.929993, 475.805634)" width="1.754862" x="196.052567" y="443.155548"/><rect fill="url(#pattern2)" height="65.300148" stroke="url(#pattern1)" stroke-width="0.500000" transform="rotate(90, 196.929993, 477.484711)" width="1.754862" x="196.052567" y="444.834625"/><polygon fill="url(#pattern0)" points="229,478 164,483 164,478" stroke="url(#pattern1)" stroke-width="0.500000"/><rect fill="url(#pattern2)" height="2.909749" stroke="url(#pattern1)" stroke-width="0.500000" transform="rotate(90, 196.929993, 483.829773)" width="10.966064" x="191.446960" y="482.374908"/><path d="M 137.649490 192.429016 C 133.776855 187.050125 110.543907 187.050125 106.716393 192.674759" fill="none" stroke="url(#pattern1)" stroke-width="0.500000"/><polygon fill="url(#pattern0)" points="79,497 79,511 85,512 88,517 114,521 115,511 114,499 111,497" stroke="url(#pattern1)" stroke-width="0.500000"/><polygon fill="url(#pattern0)" points="102,516 102,516 103,516 104,516 105,516 106,517 106,517 107,517 108,517 109,517 109,518 110,518 111,518 111,518 112,519 112,519 113,519 113,519 113,519 114,520 114,520 114,520 114,520 114,521 114,521 114,521 114,521 114,521 114,521 114,522 114,522 113,522 113,522 112,522 112,522 112,522 111,522 110,522 110,522 109,522 108,522 108,522 107,522 106,522 105,522 105,522 104,522 103,522 102,522 101,522 101,521 100,521 99,521 98,521 97,521 96,521 96,520 95,520 94,520 93,520 93,520 92,519 92,519 91,519 90,519 90,518 90,518 89,518 89,518 88,517 88,517 88,517 88,517 88,517 88,516 88,516 88,516 88,516 88,516 88,516 89,515 89,515 89,515 90,515 90,515 91,515 91,515 92,515 92,515 93,515 94,515 94,515 95,515 96,515 97,515 97,515 98,515 99,515 100,515 101,516" stroke="url(#pattern1)" stroke-width="0.500000"/><path d="M 114.999268 519.291748 C 115.108704 516.056580 88.923744 511.282471 88.717346 514.813293" fill="none" stroke="url(#pattern1)" stroke-width="0.500000"/><path d="M 115.222939 517.165344 C 115.332375 513.930115 89.147423 509.156036 88.941017 512.686951" fill="none" stroke="url(#pattern1)" stroke-width="0.500000"/><path d="M 115.446617 515.151245 C 115.556068 511.916046 89.372070 507.141968 89.164696 510.672852" fill="none" stroke="url(#pattern1)" stroke-width="0.500000"/><path d="M 115.670311 513.249512 C 115.779747 510.014282 89.595741 505.240234 89.389343 508.771088" fill="none" stroke="url(#pattern1)" stroke-width="0.500000"/><path d="M 115.782616 511.235443 C 115.892067 508.000214 89.707115 503.226166 89.500710 506.756989" fill="none" stroke="url(#pattern1)" stroke-width="0.500000"/><path d="M 115.564697 508.773041 C 115.668373 505.729828 91.037659 501.239899 90.843750 504.560547" fill="none" stroke="url(#pattern1)" stroke-width="0.500000"/><path d="M 115.234459 506.535248 C 115.332375 503.673492 92.165672 499.449463 91.983253 502.573334" fill="none" stroke="url(#pattern1)" stroke-width="0.500000"/><path d="M 115.016541 504.297485 C 115.108704 501.613312 93.384865 497.653320 93.213989 500.582275" fill="none" stroke="url(#pattern1)" stroke-width="0.500000"/><path d="M 114.799583 502.283417 C 114.885033 499.815277 94.913185 496.174927 94.755737 498.867767" fill="none" stroke="url(#pattern1)" stroke-width="0.500000"/><path d="M 115.563744 509.444977 C 115.668373 506.392212 90.959900 501.887909 90.765991 505.219086" fill="none" stroke="url(#pattern1)" stroke-width="0.500000"/><polyline fill="none" points="88.2469,517.102 89.5007,506.868 94.4649,497.97" stroke="url(#pattern1)" stroke-width="0.500000"/><rect fill="url(#pattern0)" height="6.693115" stroke="url(#pattern1)" stroke-width="0.500000" transform="rotate(90, 85.279587, 503.243408)" width="10.546550" x="80.006310" y="499.896851"/><rect fill="url(#pattern0)" height="6.693115" stroke="url(#pattern1)" stroke-width="0.500000" transform="rotate(90, 85.279579, 509.635529)" width="2.237752" x="84.160706" y="506.288971"/><polygon fill="url(#pattern0)" points="86,508 91,501 94,501 98,502 99,509" stroke="url(#pattern1)" stroke-width="0.500000"/><polygon fill="url(#pattern0)" points="93,507 94,507 94,507 94,507 95,507 95,508 96,508 96,508 96,508 97,508 97,508 97,508 98,508 98,508 98,508 98,508 99,508 99,508 99,509 99,509 99,509 99,509 99,509 99,509 100,509 100,509 100,509 99,509 99,509 99,510 99,510 99,510 99,510 99,510 98,510 98,510 98,510 98,510 97,510 97,510 97,510 96,510 96,510 96,510 95,510 95,510 94,510 94,510 94,510 93,510 93,510 92,510 92,510 92,510 91,510 91,510 90,510 90,510 90,510 89,509 89,509 89,509 88,509 88,509 88,509 88,509 87,509 87,509 87,509 87,509 87,509 87,508 87,508 86,508 86,508 86,508 86,508 86,508 87,508 87,508 87,508 87,508 87,508 87,507 88,507 88,507 88,507 88,507 89,507 89,507 89,507 90,507 90,507 90,507 91,507 91,507 91,507 92,507 92,507 93,507" stroke="url(#pattern1)" stroke-width="0.500000"/><polygon fill="url(#pattern0)" points="91,501 94,501 98,502 98,501 95,500 91,500" stroke="url(#pattern1)" stroke-width="0.500000"/><polygon fill="url(#pattern0)" points="91,500 95,500 98,501 101,497 90,497" stroke="url(#pattern1)" stroke-width="0.500000"/><polygon fill="url(#pattern0)" points="164,497 164,511 158,512 155,517 129,521 128,511 129,499 132,497" stroke="url(#pattern1)" stroke-width="0.500000"/><polygon fill="url(#pattern0)" points="142,516 141,516 140,516 139,516 139,516 138,517 137,517 136,517 135,517 135,517 134,518 133,518 133,518 132,518 132,519 131,519 131,519 130,519 130,519 130,520 129,520 129,520 129,520 129,521 129,521 129,521 129,521 129,521 129,521 130,522 130,522 130,522 130,522 131,522 131,522 132,522 132,522 133,522 134,522 134,522 135,522 136,522 136,522 137,522 138,522 139,522 140,522 140,522 141,522 142,522 143,521 144,521 145,521 145,521 146,521 147,521 148,520 148,520 149,520 150,520 151,520 151,519 152,519 152,519 153,519 153,518 154,518 154,518 155,518 155,517 155,517 155,517 156,517 156,517 156,516 156,516 156,516 155,516 155,516 155,516 155,515 155,515 154,515 154,515 153,515 153,515 152,515 152,515 151,515 150,515 150,515 149,515 148,515 148,515 147,515 146,515 145,515 144,515 143,515 143,516" stroke="url(#pattern1)" stroke-width="0.500000"/><path d="M 129.366623 519.291748 C 129.258133 516.056580 155.442139 511.282471 155.648544 514.813293" fill="none" stroke="url(#pattern1)" stroke-width="0.500000"/><path d="M 129.142944 517.165344 C 129.033508 513.930115 155.218460 509.156036 155.424866 512.686951" fill="none" stroke="url(#pattern1)" stroke-width="0.500000"/><path d="M 128.919266 515.151245 C 128.809814 511.916046 154.994797 507.141968 155.201187 510.672852" fill="none" stroke="url(#pattern1)" stroke-width="0.500000"/><path d="M 128.695572 513.249512 C 128.586136 510.014282 154.771103 505.240234 154.977493 508.771088" fill="none" stroke="url(#pattern1)" stroke-width="0.500000"/><path d="M 128.583267 511.235443 C 128.474792 508.000214 154.658798 503.226166 154.865173 506.756989" fill="none" stroke="url(#pattern1)" stroke-width="0.500000"/><path d="M 128.802139 508.773041 C 128.698471 505.729828 153.328232 501.239899 153.522141 504.560547" fill="none" stroke="url(#pattern1)" stroke-width="0.500000"/><path d="M 129.131424 506.535248 C 129.033508 503.673492 152.200211 499.449463 152.382629 502.573334" fill="none" stroke="url(#pattern1)" stroke-width="0.500000"/><path d="M 129.349350 504.297485 C 129.258133 501.613312 150.981018 497.653320 151.151901 500.582275" fill="none" stroke="url(#pattern1)" stroke-width="0.500000"/><path d="M 129.567261 502.283417 C 129.481827 499.815277 149.453659 496.174927 149.611099 498.867767" fill="none" stroke="url(#pattern1)" stroke-width="0.500000"/><path d="M 128.803101 509.444977 C 128.698471 506.392212 153.405991 501.887909 153.600876 505.219086" fill="none" stroke="url(#pattern1)" stroke-width="0.500000"/><polyline fill="none" points="156.12,517.102 154.865,506.868 149.902,497.97" stroke="url(#pattern1)" stroke-width="0.500000"/><rect fill="url(#pattern0)" height="6.693115" stroke="url(#pattern1)" stroke-width="0.500000" transform="rotate(90, 159.087250, 503.243408)" width="10.546550" x="153.813980" y="499.896851"/><rect fill="url(#pattern0)" height="6.693115" stroke="url(#pattern1)" stroke-width="0.500000" transform="rotate(90, 159.087265, 509.635529)" width="2.237752" x="157.968384" y="506.288971"/><polygon fill="url(#pattern0)" points="157,508 152,501 149,501 146,502 144,509" stroke="url(#pattern1)" stroke-width="0.500000"/><polygon fill="url(#pattern0)" points="150,507 150,507 149,507 149,507 149,507 148,508 148,508 147,508 147,508 147,508 146,508 146,508 146,508 146,508 145,508 145,508 145,508 145,508 144,509 144,509 144,509 144,509 144,509 144,509 144,509 144,509 144,509 144,509 144,509 144,510 144,510 144,510 145,510 145,510 145,510 145,510 145,510 146,510 146,510 146,510 147,510 147,510 147,510 148,510 148,510 148,510 149,510 149,510 150,510 150,510 151,510 151,510 151,510 152,510 152,510 153,510 153,510 153,510 154,510 154,509 154,509 155,509 155,509 155,509 156,509 156,509 156,509 156,509 156,509 157,509 157,509 157,508 157,508 157,508 157,508 157,508 157,508 157,508 157,508 157,508 157,508 156,508 156,508 156,507 156,507 156,507 155,507 155,507 155,507 154,507 154,507 154,507 153,507 153,507 153,507 152,507 152,507 151,507 151,507 151,507" stroke="url(#pattern1)" stroke-width="0.500000"/><polygon fill="url(#pattern0)" points="152,501 149,501 146,502 145,501 149,500 152,500" stroke="url(#pattern1)" stroke-width="0.500000"/><polygon fill="url(#pattern0)" points="152,500 149,500 145,501 143,497 153,497" stroke="url(#pattern1)" stroke-width="0.500000"/><polygon fill="url(#pattern0)" points="108,516 110,506 114,498 129,498 133,506 135,516" stroke="url(#pattern1)" stroke-width="0.500000"/><polygon fill="url(#pattern0)" points="122,519 121,519 120,519 119,519 118,519 118,519 117,519 116,518 115,518 115,518 114,518 113,518 113,518 112,518 111,518 111,518 110,518 110,517 110,517 109,517 109,517 109,517 109,517 109,517 108,516 108,516 108,516 109,516 109,516 109,516 109,516 109,515 110,515 110,515 110,515 111,515 111,515 112,515 113,514 113,514 114,514 115,514 115,514 116,514 117,514 118,514 118,514 119,514 120,514 121,514 122,514 123,514 123,514 124,514 125,514 126,514 127,514 127,514 128,514 129,514 130,514 130,514 131,514 131,515 132,515 133,515 133,515 133,515 134,515 134,515 134,516 135,516 135,516 135,516 135,516 135,516 135,516 135,517 135,517 135,517 134,517 134,517 134,517 133,517 133,518 133,518 132,518 131,518 131,518 130,518 130,518 129,518 128,518 127,518 127,519 126,519 125,519 124,519 123,519 123,519" stroke="url(#pattern1)" stroke-width="0.500000"/><path d="M 135.340698 514.762451 C 134.893356 511.557953 108.769814 511.403412 109.172058 514.916077" fill="none" stroke="url(#pattern1)" stroke-width="0.500000"/><path d="M 135.004700 512.860657 C 134.568863 509.655273 109.105812 509.500702 109.497498 513.013367" fill="none" stroke="url(#pattern1)" stroke-width="0.500000"/><path d="M 134.669662 510.957977 C 134.244385 507.753510 109.440857 507.598969 109.822937 511.111572" fill="none" stroke="url(#pattern1)" stroke-width="0.500000"/><path d="M 134.333664 509.167572 C 133.921814 505.963104 109.889183 505.808502 110.258789 509.321167" fill="none" stroke="url(#pattern1)" stroke-width="0.500000"/><path d="M 133.997665 507.377197 C 133.595413 504.172699 110.112854 504.018158 110.473816 507.530762" fill="none" stroke="url(#pattern1)" stroke-width="0.500000"/><path d="M 133.437988 505.586761 C 133.056870 502.382294 110.783897 502.227692 111.126625 505.740387" fill="none" stroke="url(#pattern1)" stroke-width="0.500000"/><path d="M 132.543259 503.908691 C 132.189026 500.704193 111.567261 500.549652 111.885033 504.062286" fill="none" stroke="url(#pattern1)" stroke-width="0.500000"/><path d="M 131.759903 502.341949 C 131.434464 499.137482 112.461975 498.982910 112.754784 502.495575" fill="none" stroke="url(#pattern1)" stroke-width="0.500000"/><polygon fill="url(#pattern2)" points="118,444 112,475 118,538 125,538 132,475 125,444" stroke="url(#pattern1)" stroke-width="0.500000"/><path d="M 158 451 C 145 431 132 458 132 471 132 471 132 471 132 484 132 497 132 497 132 497 132 497 132 497 148 497 164 497 164 497 164 497 164 497 164 497 164 484 164 471 164 471 164 471 164 471 164 460 158 451 Z" fill="url(#pattern2)" stroke="url(#pattern1)" stroke-width="0.500000"/><path d="M 86 451 C 98 431 111 458 111 471 111 471 111 471 111 484 111 497 111 497 111 497 111 497 111 497 95 497 79 497 79 497 79 497 79 497 79 497 79 484 79 471 79 471 79 471 79 471 80 460 86 451 Z" fill="url(#pattern2)" stroke="url(#pattern1)" stroke-width="0.500000"/><path d="M 143.384537 208.373657 C 138.074783 202.995728 106.227745 202.995728 100.981346 208.619400" fill="none" stroke="url(#pattern1)" stroke-width="0.500000"/><path d="M 135.971420 189.631577 C 132.518311 184.252686 111.806297 184.252686 108.394470 189.877335" fill="none" stroke="url(#pattern1)" stroke-width="0.500000"/><rect fill="url(#pattern1)" height="49.376629" stroke="url(#pattern1)" stroke-width="0.500000" transform="rotate(90, 122.182945, 352.126953)" width="181.301758" x="31.532064" y="327.438629"/><polygon fill="url(#pattern2)" points="112,248 118,248 118,254 112,254" stroke="url(#pattern1)" stroke-width="0.500000"/><polygon fill="url(#pattern2)" points="125,248 132,248 132,254 125,254" stroke="url(#pattern1)" stroke-width="0.500000"/><polygon fill="url(#pattern2)" points="97,259 97,341 81,338 91,303 94,260" stroke="url(#pattern1)" stroke-width="0.500000"/><polygon fill="url(#pattern2)" points="147,259 147,341 162,338 152,303 149,260" stroke="url(#pattern1)" stroke-width="0.500000"/><line fill="url(#pattern2)" stroke="url(#pattern1)" stroke-width="0.500000" x1="121.748070" x2="121.748070" y1="447.426117" y2="534.519226"/><polygon fill="url(#pattern2)" points="102,306 142,306 142,337 102,337" stroke="url(#pattern1)" stroke-width="0.500000"/><rect fill="url(#pattern2)" height="40.282551" stroke="url(#pattern1)" stroke-width="0.500000" transform="rotate(90, 122.183434, 304.291565)" width="5.035197" x="119.665833" y="284.150299"/><rect fill="url(#pattern2)" height="40.282551" stroke="url(#pattern1)" stroke-width="0.500000" transform="rotate(90, 122.183434, 339.538910)" width="5.035197" x="119.665833" y="319.397644"/><rect fill="url(#pattern3)" height="4.070394" stroke-width="0.500000" transform="rotate(90, 136.478317, 322.138428)" width="29.304953" x="121.825844" y="320.103241"/><rect fill="url(#pattern2)" height="40.282551" stroke="url(#pattern1)" stroke-width="0.500000" transform="rotate(90, 122.183434, 321.915222)" width="5.035197" x="119.665833" y="301.773956"/><ellipse cx="122" cy="313" fill="url(#pattern2)" rx="4" ry="4" stroke="url(#pattern1)" stroke-width="0.500000"/><rect fill="url(#pattern0)" height="20.141745" stroke="url(#pattern1)" stroke-width="0.500000" transform="rotate(90, 122.183426, 296.738770)" width="10.070394" x="117.148232" y="286.667908"/><line fill="url(#pattern0)" stroke="url(#pattern1)" stroke-width="0.500000" x1="112.112549" x2="132.254288" y1="293.717651" y2="293.717651"/><line fill="url(#pattern0)" stroke="url(#pattern1)" stroke-width="0.500000" x1="112.112549" x2="132.254288" y1="295.731720" y2="295.731720"/><line fill="url(#pattern0)" stroke="url(#pattern1)" stroke-width="0.500000" x1="112.112549" x2="132.254288" y1="297.745819" y2="297.745819"/><line fill="url(#pattern0)" stroke="url(#pattern1)" stroke-width="0.500000" x1="112.112549" x2="132.254288" y1="299.759888" y2="299.759888"/><rect fill="url(#pattern2)" height="10.070394" stroke="url(#pattern1)" stroke-width="0.500000" transform="rotate(90, 122.182953, 278.443054)" width="26.519022" x="108.923439" y="273.407867"/><polygon fill="url(#pattern0)" points="110,342 110,349 118,349 118,357 126,357 133,349 133,342" stroke="url(#pattern1)" stroke-width="0.500000"/><rect fill="url(#pattern0)" height="7.757751" stroke="url(#pattern1)" stroke-width="0.500000" transform="rotate(90, 127.700569, 346.970276)" width="7.757751" x="123.821693" y="343.091400"/><ellipse cx="122" cy="313" fill="url(#pattern2)" rx="3" ry="3" stroke="url(#pattern1)" stroke-width="0.500000"/><ellipse cx="122" cy="330" fill="url(#pattern2)" rx="4" ry="4" stroke="url(#pattern1)" stroke-width="0.500000"/><ellipse cx="122" cy="330" fill="url(#pattern2)" rx="3" ry="3" stroke="url(#pattern1)" stroke-width="0.500000"/><rect fill="url(#pattern3)" height="2.279989" stroke-width="0.500000" transform="rotate(90, 125.064392, 283.019409)" width="16.414062" x="116.857361" y="281.879425"/><polygon fill="url(#pattern2)" points="110,369 110,384 114,387 107,391 107,395 137,395 137,391 129,387 133,384 137,384 137,376 133,376 133,369" stroke="url(#pattern1)" stroke-width="0.500000"/><ellipse cx="120" cy="380" fill="url(#pattern2)" rx="3" ry="3" stroke="url(#pattern1)" stroke-width="0.500000"/><ellipse cx="115" cy="376" fill="url(#pattern2)" rx="1" ry="1" stroke="url(#pattern1)" stroke-width="0.500000"/><rect fill="url(#pattern2)" height="18.882223" stroke="url(#pattern1)" stroke-width="0.500000" transform="rotate(90, 122.182480, 387.360870)" width="6.293742" x="119.035606" y="377.919769"/><rect fill="url(#pattern2)" height="3.776632" stroke="url(#pattern1)" stroke-width="0.500000" transform="rotate(90, 129.735291, 376.660187)" width="7.552307" x="125.959129" y="374.771881"/><rect fill="url(#pattern4)" height="1.415995" stroke="url(#pattern1)" stroke-width="0.500000" transform="rotate(90, 110.382156, 393.339752)" width="2.831990" x="108.966164" y="392.631744"/><rect fill="url(#pattern4)" height="1.415995" stroke="url(#pattern1)" stroke-width="0.500000" transform="rotate(90, 134.692245, 393.182281)" width="2.831990" x="133.276245" y="392.474274"/><rect fill="url(#pattern2)" height="7.552307" stroke="url(#pattern1)" stroke-width="0.500000" transform="rotate(90, 115.888718, 391.557007)" width="3.776632" x="114.000404" y="387.780853"/><polygon fill="url(#pattern0)" points="122,370 122,372 107,372 107,352 137,352 137,372 122,372 122,370 135,370 135,353 108,353 108,370" stroke="url(#pattern1)" stroke-width="0.500000"/><ellipse cx="122" cy="362" fill="url(#pattern3)" rx="10" ry="10" stroke="url(#pattern1)" stroke-width="0.500000"/><ellipse cx="122" cy="362" fill="url(#pattern2)" rx="9" ry="9" stroke="url(#pattern1)" stroke-width="0.500000"/><ellipse cx="122" cy="362" fill="url(#pattern4)" rx="5" ry="5" stroke="url(#pattern1)" stroke-width="0.500000"/><ellipse cx="122" cy="362" fill="url(#pattern1)" rx="4" ry="4" stroke="url(#pattern1)" stroke-width="0.500000"/><polygon fill="url(#pattern4)" points="107,395 137,395 137,397 135,398 137,398 137,401 135,403 137,403 137,406 135,407 137,407 137,410 135,412 137,412 137,413 135,415 134,415 134,416 110,416 110,415 108,415 107,413 107,412 108,412 107,410 107,407 108,407 107,406 107,403 108,403 107,401 107,398 108,398 107,397" stroke="url(#pattern1)" stroke-width="0.500000"/><polygon fill="url(#pattern0)" points="98,415 100,415 102,417 141,417 144,415 146,415 146,424 144,424 141,422 102,422 100,424 98,424" stroke="url(#pattern1)" stroke-width="0.500000"/><rect fill="url(#pattern2)" height="18.798706" stroke="url(#pattern1)" stroke-width="0.500000" transform="rotate(90, 122.182938, 416.244354)" width="10.070394" x="117.147743" y="406.845001"/><rect fill="url(#pattern2)" height="11.279033" stroke="url(#pattern1)" stroke-width="0.500000" transform="rotate(90, 120.213524, 416.691772)" width="6.042236" x="117.192406" y="411.052246"/><ellipse cx="122" cy="268" fill="url(#pattern4)" rx="6" ry="6" stroke="url(#pattern1)" stroke-width="0.500000"/><ellipse cx="122" cy="268" fill="url(#pattern3)" rx="5" ry="5" stroke="url(#pattern1)" stroke-width="0.500000"/><polygon fill="url(#pattern5)" points="120,268 123,268 113,308 113,348 103,368 100,368 110,348 110,308" stroke="url(#pattern1)" stroke-width="0.500000"/><polygon fill="url(#pattern4)" points="101,368 102,368 105,371 105,375 104,375 104,371 102,369 101,369 100,371 100,375 99,375 98,371" stroke="url(#pattern1)" stroke-width="0.500000"/><ellipse cx="112" cy="348" fill="url(#pattern4)" rx="1" ry="1" stroke="url(#pattern1)" stroke-width="0.500000"/><ellipse cx="112" cy="308" fill="url(#pattern4)" rx="1" ry="1" stroke="url(#pattern1)" stroke-width="0.500000"/><ellipse cx="122" cy="268" fill="url(#pattern4)" rx="4" ry="4" stroke="url(#pattern1)" stroke-width="0.500000"/><ellipse cx="122" cy="268" fill="url(#pattern4)" rx="1" ry="1" stroke="url(#pattern1)" stroke-width="0.500000"/><rect fill="url(#pattern2)" height="25.207663" stroke="url(#pattern1)" stroke-width="0.500000" transform="rotate(90, 109.734650, 352.127411)" width="185.002548" x="17.233377" y="339.523590"/><line fill="url(#pattern2)" stroke="url(#pattern1)" stroke-width="0.500000" x1="122.271263" x2="96.851418" y1="319.553162" y2="319.553162"/><line fill="url(#pattern2)" stroke="url(#pattern1)" stroke-width="0.500000" x1="122.271263" x2="96.851418" y1="379.417816" y2="379.417816"/><line fill="url(#pattern2)" stroke="url(#pattern1)" stroke-width="0.500000" x1="122.271263" x2="96.851418" y1="439.003082" y2="439.003082"/><rect fill="url(#pattern2)" height="25.207663" stroke="url(#pattern1)" stroke-width="0.500000" transform="rotate(90, 134.911621, 352.127411)" width="185.002548" x="42.410339" y="339.523590"/><line fill="url(#pattern2)" stroke="url(#pattern1)" stroke-width="0.500000" x1="147.448227" x2="122.027428" y1="319.553162" y2="319.553162"/><line fill="url(#pattern2)" stroke="url(#pattern1)" stroke-width="0.500000" x1="147.448227" x2="122.027428" y1="379.417816" y2="379.417816"/><line fill="url(#pattern2)" stroke="url(#pattern1)" stroke-width="0.500000" x1="147.448227" x2="122.027428" y1="439.003082" y2="439.003082"/></svg>