<?xml version="1.0" encoding="UTF-8" standalone="no" ?><svg viewBox="0 0 178.721049 217.460897" xmlns="http://www.w3.org/2000/svg" xmlns:xlink="http://www.w3.org/1999/xlink"><defs><pattern height="16" id="pattern0" patternUnits="userSpaceOnUse" width="16"><image xlink:href="TL_GFX_PATTERN_6_N_1392650.030000.png"/></pattern><pattern height="16" id="pattern1" patternUnits="userSpaceOnUse" width="16"><image xlink:href="TL_GFX_PATTERN_0_N_1392651.000000.png"/></pattern><pattern height="16" id="pattern2" patternUnits="userSpaceOnUse" width="16"><image xlink:href="TL_GFX_PATTERN_7_N_1392650.000000.png"/></pattern></defs><polygon fill="url(#pattern0)" points="1,134 64,152 114,206 159,215 159,124 1,124" stroke="url(#pattern1)" stroke-width="0.500000"/><polygon fill="url(#pattern0)" points="1,83 64,64 114,10 159,1 159,92 1,92" stroke="url(#pattern1)" stroke-width="0.500000"/><rect fill="url(#pattern2)" height="65.300148" stroke="url(#pattern1)" stroke-width="0.500000" width="3.210225" x="159.926315" y="150.827408"/><rect fill="url(#pattern2)" height="65.300148" stroke="url(#pattern1)" stroke-width="0.500000" width="1.754862" x="163.003098" y="150.827408"/><rect fill="url(#pattern2)" height="65.300148" stroke="url(#pattern1)" stroke-width="0.500000" width="1.754862" x="164.682144" y="150.827408"/><polygon fill="url(#pattern0)" points="166,216 171,151 166,150" stroke="url(#pattern1)" stroke-width="0.500000"/><rect fill="url(#pattern2)" height="2.909749" stroke="url(#pattern1)" stroke-width="0.500000" width="10.966064" x="166.421646" y="182.022598"/><rect fill="url(#pattern2)" height="65.300148" stroke="url(#pattern1)" stroke-width="0.500000" width="3.210225" x="159.926315" y="1.333333"/><rect fill="url(#pattern2)" height="65.300148" stroke="url(#pattern1)" stroke-width="0.500000" width="1.754862" x="163.003098" y="1.333333"/><rect fill="url(#pattern2)" height="65.300148" stroke="url(#pattern1)" stroke-width="0.500000" width="1.754862" x="164.682144" y="1.333333"/><polygon fill="url(#pattern0)" points="166,1 171,66 166,66" stroke="url(#pattern1)" stroke-width="0.500000"/><rect fill="url(#pattern2)" height="2.909749" stroke="url(#pattern1)" stroke-width="0.500000" width="10.966064" x="166.421646" y="32.528522"/></svg>