<?xml version="1.0" encoding="UTF-8" standalone="no" ?><svg viewBox="0 0 221.788371 106.562622" xmlns="http://www.w3.org/2000/svg" xmlns:xlink="http://www.w3.org/1999/xlink"><defs><pattern height="16" id="pattern0" patternUnits="userSpaceOnUse" width="16"><image xlink:href="TL_GFX_PATTERN_3_N_1392650.500000.png"/></pattern><pattern height="16" id="pattern1" patternUnits="userSpaceOnUse" width="16"><image xlink:href="TL_GFX_PATTERN_0_N_1392651.000000.png"/></pattern><pattern height="16" id="pattern2" patternUnits="userSpaceOnUse" width="16"><image xlink:href="TL_GFX_PATTERN_4_N_1392650.300000.png"/></pattern><filter height="1" id="filter0" width="1" x="0" y="0"><feFlood flood-opacity="0"/><feComposite in="SourceGraphic"/></filter></defs><rect fill="url(#pattern0)" height="90.905617" stroke-width="0.500000" width="90.905617" x="7.826620" y="7.826620"/><polygon fill="url(#pattern1)" points="7,98 1,105 1,1 7,7" stroke-width="0.500000"/><polygon fill="url(#pattern1)" points="7,98 1,105 105,105 98,98" stroke-width="0.500000"/><polygon fill="url(#pattern2)" points="105,105 98,98 98,7 105,1" stroke-width="0.500000"/><polygon fill="url(#pattern2)" points="105,1 98,7 7,7 1,1" stroke-width="0.500000"/><rect fill="url(#pattern0)" height="90.905617" stroke-width="0.500000" width="90.905617" x="123.056091" y="7.826620"/><polygon fill="url(#pattern1)" points="123,98 116,105 116,1 123,7" stroke-width="0.500000"/><polygon fill="url(#pattern1)" points="123,98 116,105 220,105 213,98" stroke-width="0.500000"/><polygon fill="url(#pattern2)" points="220,105 213,98 213,7 220,1" stroke-width="0.500000"/><polygon fill="url(#pattern2)" points="220,1 213,7 123,7 116,1" stroke-width="0.500000"/><text lengthAdjust="spacingAndGlyphs" style="font-family : Myriad Pro ; font-weight:Bold;font-style:normal;font-size : 18.55pt;text-decoration:none;font-kerning:normal;text-transform:none;font-stretch:normal;fill:#ff0000;background-color:transparent;letter-spacing : 0.00em;;white-space:pre;filter:url(#filter0)" textLength="47.609253" x="29.474813" y="62.448853">HOT</text><text lengthAdjust="spacingAndGlyphs" style="font-family : Myriad Pro ; font-weight:Bold;font-style:normal;font-size : 18.55pt;text-decoration:none;font-kerning:normal;text-transform:none;font-stretch:normal;fill:#1189ff;background-color:transparent;letter-spacing : 0.00em;;white-space:pre;filter:url(#filter0)" textLength="62.045288" x="137.486252" y="62.448853">COOL</text></svg>